# Blender v2.77 (sub 0) OBJ File: ''
# www.blender.org
v 0.000000 0.301707 -0.731125
v 0.173506 0.301707 -0.684635
v 0.300521 0.301707 -0.557620
v 0.347011 0.301707 -0.384114
v 0.300521 0.301707 -0.210608
v 0.173506 0.301707 -0.083593
v 0.000000 0.301707 -0.037103
v 0.000000 0.995730 -0.384114
v -0.173506 0.301707 -0.083593
v -0.300521 0.301707 -0.210608
v -0.347011 0.301707 -0.384114
v -0.300521 0.301707 -0.557620
v -0.173506 0.301707 -0.684635
v 0.000000 0.507643 -0.679074
v 0.147480 0.507643 -0.639557
v 0.255443 0.507643 -0.531594
v 0.294960 0.507643 -0.384114
v 0.255443 0.507643 -0.236634
v 0.147480 0.507643 -0.128672
v 0.000000 0.507643 -0.089154
v 0.000000 0.937937 -0.384114
v -0.147480 0.507643 -0.128671
v -0.255443 0.507643 -0.236634
v -0.294960 0.507643 -0.384114
v -0.255443 0.507643 -0.531594
v -0.147480 0.507643 -0.639557
v 0.000000 0.625227 -0.654783
v 0.135334 0.625227 -0.618520
v 0.234406 0.625227 -0.519449
v 0.270669 0.625227 -0.384114
v 0.234406 0.625227 -0.248780
v 0.135334 0.625227 -0.149708
v 0.000000 0.625227 -0.113445
v 0.000000 1.000000 -0.384114
v -0.135334 0.625227 -0.149708
v -0.234406 0.625227 -0.248780
v -0.270669 0.625227 -0.384114
v -0.234406 0.625227 -0.519448
v -0.135335 0.625227 -0.618520
v 0.000000 -0.000003 -0.557620
v 0.000000 0.694020 -0.557620
v 0.086753 -0.000003 -0.534374
v 0.086753 0.694020 -0.534374
v 0.150260 -0.000003 -0.470867
v 0.150260 0.694020 -0.470867
v 0.173506 -0.000003 -0.384114
v 0.173506 0.694020 -0.384114
v 0.150260 -0.000003 -0.297361
v 0.150260 0.694020 -0.297361
v 0.086753 -0.000003 -0.233854
v 0.086753 0.694020 -0.233854
v 0.000000 0.000002 -0.210610
v 0.000000 0.694020 -0.210608
v -0.086753 -0.000003 -0.233854
v -0.086753 0.694020 -0.233854
v -0.150260 -0.000003 -0.297361
v -0.150260 0.694020 -0.297361
v -0.173506 -0.000003 -0.384114
v -0.173506 0.694020 -0.384114
v -0.150260 -0.000003 -0.470867
v -0.150260 0.694020 -0.470867
v -0.086753 -0.000003 -0.534374
v -0.086753 0.694020 -0.534374
vn 0.2331 0.4349 -0.8698
vn 0.6367 0.4349 -0.6367
vn 0.8698 0.4349 -0.2331
vn 0.8698 0.4349 0.2331
vn 0.6367 0.4349 0.6367
vn 0.2331 0.4349 0.8698
vn -0.2331 0.4349 0.8698
vn -0.6367 0.4349 0.6367
vn -0.8698 0.4349 0.2331
vn -0.8698 0.4349 -0.2331
vn -0.6367 0.4349 -0.6367
vn -0.2331 0.4349 -0.8698
vn 0.0000 -1.0000 0.0000
vn 0.2158 0.5521 -0.8054
vn 0.5896 0.5521 -0.5896
vn 0.8054 0.5521 -0.2158
vn 0.8054 0.5521 0.2158
vn 0.5896 0.5521 0.5896
vn 0.2158 0.5521 0.8054
vn -0.2158 0.5521 0.8054
vn -0.5896 0.5521 0.5896
vn -0.8054 0.5521 0.2158
vn -0.8054 0.5521 -0.2158
vn -0.5896 0.5521 -0.5896
vn -0.2158 0.5521 -0.8054
vn 0.2123 0.5721 -0.7922
vn 0.5799 0.5721 -0.5799
vn 0.7922 0.5721 -0.2123
vn 0.7922 0.5721 0.2123
vn 0.5799 0.5721 0.5799
vn 0.2123 0.5721 0.7922
vn -0.2123 0.5721 0.7922
vn -0.5799 0.5721 0.5799
vn -0.7922 0.5721 0.2123
vn -0.7922 0.5721 -0.2123
vn -0.5799 0.5721 -0.5799
vn -0.2123 0.5721 -0.7922
vn 0.2588 0.0000 -0.9659
vn 0.7071 0.0000 -0.7071
vn 0.9659 0.0000 -0.2588
vn 0.9659 0.0000 0.2588
vn 0.7071 0.0000 0.7071
vn 0.2588 0.0000 0.9659
vn -0.2588 0.0000 0.9659
vn -0.7071 0.0000 0.7071
vn -0.9659 0.0000 0.2588
vn -0.9659 0.0000 -0.2588
vn 0.0000 1.0000 0.0000
vn -0.7071 0.0000 -0.7071
vn -0.2588 0.0000 -0.9659
vn -0.0001 -1.0000 -0.0001
vn 0.0001 -1.0000 -0.0001
s off
f 1//1 8//1 2//1
f 2//2 8//2 3//2
f 3//3 8//3 4//3
f 4//4 8//4 5//4
f 5//5 8//5 6//5
f 6//6 8//6 7//6
f 7//7 8//7 9//7
f 9//8 8//8 10//8
f 10//9 8//9 11//9
f 11//10 8//10 12//10
f 12//11 8//11 13//11
f 13//12 8//12 1//12
f 4//13 9//13 13//13
f 14//14 21//14 15//14
f 15//15 21//15 16//15
f 16//16 21//16 17//16
f 17//17 21//17 18//17
f 18//18 21//18 19//18
f 19//19 21//19 20//19
f 20//20 21//20 22//20
f 22//21 21//21 23//21
f 23//22 21//22 24//22
f 24//23 21//23 25//23
f 25//24 21//24 26//24
f 26//25 21//25 14//25
f 17//13 22//13 26//13
f 27//26 34//26 28//26
f 28//27 34//27 29//27
f 29//28 34//28 30//28
f 30//29 34//29 31//29
f 31//30 34//30 32//30
f 32//31 34//31 33//31
f 33//32 34//32 35//32
f 35//33 34//33 36//33
f 36//34 34//34 37//34
f 37//35 34//35 38//35
f 38//36 34//36 39//36
f 39//37 34//37 27//37
f 30//13 35//13 28//13
f 41//38 42//38 40//38
f 43//39 44//39 42//39
f 45//40 46//40 44//40
f 47//41 48//41 46//41
f 49//42 50//42 48//42
f 51//43 52//43 50//43
f 52//44 55//44 54//44
f 55//45 56//45 54//45
f 57//46 58//46 56//46
f 59//47 60//47 58//47
f 61//48 53//48 45//48
f 61//49 62//49 60//49
f 63//50 40//50 62//50
f 52//13 58//13 62//13
f 13//13 1//13 4//13
f 2//13 3//13 4//13
f 4//13 5//13 6//13
f 6//13 7//13 4//13
f 9//13 10//13 13//13
f 11//13 12//13 13//13
f 1//13 2//13 4//13
f 4//13 7//13 9//13
f 10//13 11//13 13//13
f 26//13 14//13 17//13
f 15//13 16//13 17//13
f 17//13 18//13 19//13
f 19//13 20//13 22//13
f 22//13 23//13 24//13
f 24//13 25//13 26//13
f 14//13 15//13 17//13
f 17//13 19//13 22//13
f 22//13 24//13 26//13
f 39//13 27//13 28//13
f 28//13 29//13 30//13
f 30//13 31//13 32//13
f 32//13 33//13 35//13
f 35//13 36//13 37//13
f 37//13 38//13 35//13
f 39//13 28//13 35//13
f 30//13 32//13 35//13
f 35//13 38//13 39//13
f 41//38 43//38 42//38
f 43//39 45//39 44//39
f 45//40 47//40 46//40
f 47//41 49//41 48//41
f 49//42 51//42 50//42
f 51//43 53//43 52//43
f 52//44 53//44 55//44
f 55//45 57//45 56//45
f 57//46 59//46 58//46
f 59//47 61//47 60//47
f 45//48 43//48 41//48
f 41//48 63//48 61//48
f 61//48 59//48 57//48
f 57//48 55//48 61//48
f 53//48 51//48 45//48
f 49//48 47//48 45//48
f 45//48 41//48 61//48
f 61//48 55//48 53//48
f 51//48 49//48 45//48
f 61//49 63//49 62//49
f 63//50 41//50 40//50
f 62//13 40//13 42//13
f 42//13 44//13 46//13
f 46//13 48//13 52//13
f 50//51 52//51 48//51
f 54//52 56//52 52//52
f 58//13 60//13 62//13
f 62//13 42//13 52//13
f 46//13 52//13 42//13
f 56//13 58//13 52//13
