# Blender v2.78 (sub 0) OBJ File: ''
# www.blender.org
v 0.356284 0.301707 0.006635
v 0.356284 0.995730 0.353646
v 0.529790 0.301707 0.053125
v 0.656805 0.301707 0.180140
v 0.703295 0.301707 0.353646
v 0.656805 0.301707 0.527152
v 0.529790 0.301707 0.654167
v 0.356284 0.301707 0.700657
v 0.182778 0.301707 0.654167
v 0.055763 0.301707 0.527152
v 0.009273 0.301707 0.353646
v 0.055763 0.301707 0.180140
v 0.182778 0.301707 0.053125
v 0.356284 0.507643 0.058686
v 0.356284 0.937937 0.353646
v 0.503764 0.507643 0.098203
v 0.611727 0.507643 0.206166
v 0.651244 0.507643 0.353646
v 0.611727 0.507643 0.501126
v 0.503764 0.507643 0.609088
v 0.356284 0.507643 0.648606
v 0.208804 0.507643 0.609089
v 0.100841 0.507643 0.501126
v 0.061324 0.507643 0.353646
v 0.100841 0.507643 0.206166
v 0.208804 0.507643 0.098203
v 0.356284 0.625227 0.082977
v 0.356284 1.000000 0.353646
v 0.491618 0.625227 0.119240
v 0.590690 0.625227 0.218311
v 0.626953 0.625227 0.353646
v 0.590690 0.625227 0.488980
v 0.491618 0.625227 0.588052
v 0.356284 0.625227 0.624315
v 0.220950 0.625227 0.588052
v 0.121878 0.625227 0.488980
v 0.085615 0.625227 0.353646
v 0.121878 0.625227 0.218312
v 0.220949 0.625227 0.119240
v 0.356284 0.694020 0.180140
v 0.443037 -0.000003 0.203386
v 0.356284 -0.000003 0.180140
v 0.443037 0.694020 0.203386
v 0.506544 -0.000003 0.266893
v 0.506544 0.694020 0.266893
v 0.529790 -0.000003 0.353646
v 0.529790 0.694020 0.353646
v 0.506544 -0.000003 0.440399
v 0.506544 0.694020 0.440399
v 0.443037 -0.000003 0.503906
v 0.443037 0.694020 0.503906
v 0.356284 0.000002 0.527150
v 0.269531 0.694020 0.503906
v 0.269531 -0.000003 0.503906
v 0.206024 -0.000003 0.440399
v 0.206024 0.694020 0.440399
v 0.182778 -0.000003 0.353646
v 0.182778 0.694020 0.353646
v 0.206024 -0.000003 0.266893
v 0.206024 0.694020 0.266893
v 0.356284 0.694020 0.527152
v 0.269531 -0.000003 0.203386
v 0.269531 0.694020 0.203386
vn 0.2331 0.4349 -0.8698
vn 0.6367 0.4349 -0.6367
vn 0.8698 0.4349 -0.2331
vn 0.8698 0.4349 0.2331
vn 0.6367 0.4349 0.6367
vn 0.2331 0.4349 0.8698
vn -0.2331 0.4349 0.8698
vn -0.6367 0.4349 0.6367
vn -0.8698 0.4349 0.2331
vn -0.8698 0.4349 -0.2331
vn -0.6367 0.4349 -0.6367
vn -0.2331 0.4349 -0.8698
vn -0.0000 -1.0000 -0.0000
vn 0.2158 0.5521 -0.8054
vn 0.5896 0.5521 -0.5896
vn 0.8054 0.5521 -0.2158
vn 0.8054 0.5521 0.2158
vn 0.5896 0.5521 0.5896
vn 0.2158 0.5521 0.8054
vn -0.2158 0.5521 0.8054
vn -0.5896 0.5521 0.5896
vn -0.8054 0.5521 0.2158
vn -0.8054 0.5521 -0.2158
vn -0.5896 0.5521 -0.5896
vn -0.2158 0.5521 -0.8054
vn 0.2123 0.5721 -0.7922
vn 0.5799 0.5721 -0.5799
vn 0.7922 0.5721 -0.2123
vn 0.7922 0.5721 0.2123
vn 0.5799 0.5721 0.5799
vn 0.2123 0.5721 0.7922
vn -0.2123 0.5721 0.7922
vn -0.5799 0.5721 0.5799
vn -0.7922 0.5721 0.2123
vn -0.7922 0.5721 -0.2123
vn -0.5799 0.5721 -0.5799
vn -0.2123 0.5721 -0.7922
vn 0.2588 0.0000 -0.9659
vn 0.7071 0.0000 -0.7071
vn 0.9659 0.0000 -0.2588
vn 0.9659 0.0000 0.2588
vn 0.7071 -0.0000 0.7071
vn 0.2588 -0.0000 0.9659
vn -0.2588 -0.0000 0.9659
vn -0.7071 -0.0000 0.7071
vn -0.9659 -0.0000 0.2588
vn -0.9659 0.0000 -0.2588
vn 0.0000 1.0000 -0.0000
vn -0.7071 0.0000 -0.7071
vn -0.2588 0.0000 -0.9659
vn -0.0001 -1.0000 -0.0001
vn 0.0001 -1.0000 -0.0001
s 1
f 1//1 2//1 3//1
f 3//2 2//2 4//2
f 4//3 2//3 5//3
f 5//4 2//4 6//4
f 6//5 2//5 7//5
f 7//6 2//6 8//6
f 8//7 2//7 9//7
f 9//8 2//8 10//8
f 10//9 2//9 11//9
f 11//10 2//10 12//10
f 12//11 2//11 13//11
f 13//12 2//12 1//12
f 5//13 9//13 13//13
f 14//14 15//14 16//14
f 16//15 15//15 17//15
f 17//16 15//16 18//16
f 18//17 15//17 19//17
f 19//18 15//18 20//18
f 20//19 15//19 21//19
f 21//20 15//20 22//20
f 22//21 15//21 23//21
f 23//22 15//22 24//22
f 24//23 15//23 25//23
f 25//24 15//24 26//24
f 26//25 15//25 14//25
f 18//13 22//13 26//13
f 27//26 28//26 29//26
f 29//27 28//27 30//27
f 30//28 28//28 31//28
f 31//29 28//29 32//29
f 32//30 28//30 33//30
f 33//31 28//31 34//31
f 34//32 28//32 35//32
f 35//33 28//33 36//33
f 36//34 28//34 37//34
f 37//35 28//35 38//35
f 38//36 28//36 39//36
f 39//37 28//37 27//37
f 31//13 35//13 29//13
f 40//38 41//38 42//38
f 43//39 44//39 41//39
f 45//40 46//40 44//40
f 47//41 48//41 46//41
f 49//42 50//42 48//42
f 51//43 52//43 50//43
f 52//44 53//44 54//44
f 53//45 55//45 54//45
f 56//46 57//46 55//46
f 58//47 59//47 57//47
f 60//48 61//48 45//48
f 60//49 62//49 59//49
f 63//50 42//50 62//50
f 52//13 57//13 62//13
f 13//13 1//13 5//13
f 3//13 4//13 5//13
f 5//13 6//13 7//13
f 7//13 8//13 5//13
f 9//13 10//13 13//13
f 11//13 12//13 13//13
f 1//13 3//13 5//13
f 5//13 8//13 9//13
f 10//13 11//13 13//13
f 26//13 14//13 18//13
f 16//13 17//13 18//13
f 18//13 19//13 20//13
f 20//13 21//13 22//13
f 22//13 23//13 24//13
f 24//13 25//13 26//13
f 14//13 16//13 18//13
f 18//13 20//13 22//13
f 22//13 24//13 26//13
f 39//13 27//13 29//13
f 29//13 30//13 31//13
f 31//13 32//13 33//13
f 33//13 34//13 35//13
f 35//13 36//13 37//13
f 37//13 38//13 35//13
f 39//13 29//13 35//13
f 31//13 33//13 35//13
f 35//13 38//13 39//13
f 40//38 43//38 41//38
f 43//39 45//39 44//39
f 45//40 47//40 46//40
f 47//41 49//41 48//41
f 49//42 51//42 50//42
f 51//43 61//43 52//43
f 52//44 61//44 53//44
f 53//45 56//45 55//45
f 56//46 58//46 57//46
f 58//47 60//47 59//47
f 45//48 43//48 40//48
f 40//48 63//48 60//48
f 60//48 58//48 56//48
f 56//48 53//48 60//48
f 61//48 51//48 45//48
f 49//48 47//48 45//48
f 45//48 40//48 60//48
f 60//48 53//48 61//48
f 51//48 49//48 45//48
f 60//49 63//49 62//49
f 63//50 40//50 42//50
f 62//13 42//13 41//13
f 41//13 44//13 46//13
f 46//13 48//13 52//13
f 50//51 52//13 48//13
f 54//52 55//13 52//13
f 57//13 59//13 62//13
f 62//13 41//13 52//13
f 46//13 52//13 41//13
f 55//13 57//13 52//13
